<svg xmlns="http://www.w3.org/2000/svg" viewBox="0 0 70.6 60.2"><defs><style>.cls-2{fill:#2d3e51}</style></defs><g id="Calque_2" data-name="Calque 2"><g id="Calque_1-2" data-name="Calque 1"><path d="M34.7.4c1.1-1 1.8.2 2.5.6l30.9 17.6c1.6 1 2.6 1.9 2.5 4q-.1 17.4 0 34.8c.1 3-.9 2.7-2.9 1.6l-17.2-9.7-.3-14.9c0-1.2.2-2.5-1.2-3.2-4.7-2.4-8.8-5.6-13.7-7.4 0-4.6.1-9.3 0-13.9s.7-6.4-.6-9.5z" fill="#2d3e51"/><path class="cls-2" d="M21 49.1c4.3-3.7 9.6-5.7 14.3-8.8L47 47.1c1 .5 2.5.7 2.6 2.3-3.9 2.1-7.8 4.2-11.6 6.6a4.5 4.5 0 0 1-5.4-.1c-3.8-2.4-7.7-4.6-11.6-6.8z"/><path d="M35.3 23.8v16.5c-4.7 3.1-10 5.1-14.3 8.8h-.3l-.3-.2v-1.1c0-4.2.1-8.5 0-12.7-.1-2.3.6-3.8 2.7-4.8 4.2-1.9 7.8-5 12.2-6.5z" fill="#2d3e51"/><path class="cls-2" d="M34.7.4c1.3 3.1.5 6.4.6 9.5s0 9.3 0 13.9c-4.4 1.5-8 4.6-12.2 6.5-2.1 1-2.8 2.5-2.7 4.8.1 4.2 0 8.5 0 12.7l-.6 1.3L.9 60.2c-1.3-1-.8-2.1-.8-3V23.1c0-1.6-.1-3 1.7-4z"/><path class="cls-2" d="M20.4 47.8v1.1l-.6.2z"/></g></g></svg>