<svg data-name="Calque 1" xmlns="http://www.w3.org/2000/svg" viewBox="0 0 251.8 80.9"><text transform="translate(89.8 42.1)" font-size="46" fill="#2980b9" font-family="OpenSans-Extrabold,Open Sans" font-weight="700" letter-spacing="-.03em">1001<tspan font-size="37" fill="#2c3e50"><tspan x="0" y="28">SERVICES</tspan></tspan></text><path d="M40.7 11.6c1.1-1 1.8.2 2.5.6l30.9 17.6c1.6 1 2.6 1.9 2.5 4q-.2 17.4 0 34.8c.1 3-.9 2.7-2.9 1.6l-17.2-9.7-.3-14.9c0-1.2.2-2.5-1.2-3.2-4.7-2.4-8.8-5.6-13.7-7.4 0-4.6.1-9.3 0-13.9s.7-6.4-.6-9.5z" fill="#2a80b8"/><path d="M40.7 11.6c1.3 3.1.5 6.4.6 9.5s0 9.3 0 13.9c-4.4 1.5-8 4.6-12.2 6.5-2.1 1-2.8 2.5-2.7 4.8.1 4.2 0 8.5 0 12.7l-.6 1.3L6.9 71.4c-1.3-1-.8-2.1-.8-3V34.3c0-1.6-.1-3 1.7-4z" fill="#2d3e51"/><path d="M41.3 35c4.9 1.8 9 5 13.7 7.4 1.4.7 1.2 2 1.2 3.2l.3 14.9h-.9c-.1-1.6-1.6-1.8-2.6-2.3l-11.7-6.8V35z" fill="#f7f9fa"/><path d="M41.3 35v16.5c-4.7 3.1-10 5.1-14.3 8.8h-.3l-.3-.2V59c0-4.2.1-8.5 0-12.7-.1-2.3.6-3.8 2.7-4.8 4.2-1.9 7.8-5 12.2-6.5z" fill="#2a7eb5"/><path d="M27 60.3c4.3-3.7 9.6-5.7 14.3-8.8L53 58.3c1 .5 2.5.7 2.6 2.3-3.9 2.1-7.8 4.2-11.6 6.6a4.5 4.5 0 0 1-5.4-.1c-3.8-2.4-7.7-4.6-11.6-6.8zm-.6-1.3v1.1a.7.7 0 0 1-.6.2z" fill="#2f4053"/></svg>