<svg xmlns="http://www.w3.org/2000/svg" viewBox="0 0 511.867 511.867"><path d="M202.958 237.756l35.31-39.724-37.076-36.193c-30.014-30.014-55.614-61.793-75.034-99.752l-.883.883c0 19.421-9.71 38.841-27.366 50.317-9.71 7.062-21.186 10.593-33.545 10.593l-.883.883c37.959 19.421 69.738 45.021 99.752 75.034l39.725 37.959zm148.303 74.152l-63.559-63.559-35.31 39.724 61.793 61.793c23.834 23.835 52.966 66.207 75.034 99.752l.883-.883c0-19.421 9.71-38.841 27.366-51.2 9.71-7.062 22.069-9.71 33.545-10.593l.883-.883c-34.428-21.185-76.8-50.316-100.635-74.151" fill="#e0e0e0"/><path d="M57.303.294l27.366 47.669-1.766 4.414C75.84 67.384 59.951 76.211 44.061 75.329h-4.414L12.282 28.543C-5.373 55.026-.077 92.984 28.172 113.288c20.303 15.007 48.552 15.007 69.738.883 33.545-22.952 36.193-67.972 9.71-95.338C93.496 4.708 75.84-1.471 57.303.294m399.889 510.235l-27.366-47.669 1.766-4.414c7.062-15.007 22.952-23.834 38.841-22.952h4.414l26.483 46.786c17.655-26.483 12.359-64.441-15.89-84.745-20.303-15.007-48.552-15.007-69.738-.883-33.545 22.952-36.193 67.972-9.71 95.338 15.007 14.125 33.545 20.304 51.2 18.539" fill="#c3c7cb"/><path d="M282.406 147.715c20.303-20.303 22.952-52.083 1.766-73.269-41.49-41.49-65.324-37.076-112.11-37.076 70.62-30.896 121.82-37.959 173.02-14.124 22.069 9.71 30.897 18.538 48.552 36.193l31.779 31.779c7.945 7.945 13.241 18.538 15.007 29.131 2.648 16.772-1.766 20.303 9.71 32.662 3.531 3.531 8.828 3.531 12.359 0s8.828-3.531 12.359 0l30.897 30.897c7.062 7.062 7.062 17.655 0 24.717l-62.676 62.676c-7.062 7.062-17.655 7.062-24.717 0l-29.131-30.014c-3.531-3.531-3.531-8.828 0-12.359 3.531-3.531 3.531-9.71 0-13.241-12.359-12.359-15.89-7.945-32.662-9.71-11.476-1.766-21.186-7.062-29.131-15.007l-45.022-43.255" fill="#7f7c79"/><path d="M282.406 147.715L8.751 454.032c-10.593 10.593-11.476 28.248-.883 37.959l12.359 12.359c10.593 10.593 27.366 9.71 37.959-.883l274.538-307.2-50.318-48.552z" fill="#565656"/><path d="M39.647 424.018l18.538 18.538c1.766 1.766 4.414 2.648 6.179 2.648 2.648 0 4.414-.883 6.179-2.648 3.531-3.531 3.531-8.828 0-12.359L52.006 411.66c-.883-.883-1.766-1.766-2.648-1.766l-10.593 12.359s0 .883.882 1.765M14.93 448.736l18.538 18.538c1.766 1.766 4.414 2.648 6.179 2.648 2.648 0 4.414-.883 6.179-2.648 3.531-3.531 3.531-8.828 0-12.359l-18.538-18.538-.883-.883-11.475 13.242c-.883 0-.883 0 0 0" fill="#7f7c79"/><path d="M345.082 355.163l-13.241 13.241c3.531 4.414 7.062 8.828 10.593 14.124 0 0 .883 0 .883-.883l14.124-14.124c3.531-3.531 3.531-8.828 0-12.359-3.532-3.53-8.828-3.53-12.359.001m24.717 25.6l-16.772 16.772c3.531 4.414 7.062 9.71 10.593 14.124l.883-.883 17.655-17.655c3.531-3.531 3.531-8.828 0-12.359s-8.828-3.53-12.359.001" fill="#c3c7cb"/></svg>