<?xml version="1.0"?>
<svg xmlns="http://www.w3.org/2000/svg" height="512px" viewBox="0 -4 448 448" width="512px"><path d="m296 392c0-4.417969 3.582031-8 8-8h48.609375l-51.320313-51.320312c-.3125 1.160156-.625 2.289062-1.023437 3.425781-.789063 2.648437-1.769531 5.238281-2.929687 7.75-.246094.648437-.65625 1.601562-1.152344 2.617187-.902344 1.902344-1.976563 3.953125-3.136719 5.910156-1.09375 1.898438-2.296875 3.734376-3.605469 5.488282-1.105468 1.667968-2.300781 3.269531-3.585937 4.800781-.378907.523437-.792969 1.015625-1.238281 1.480469-.96875 1.199218-2.480469 2.808594-4.089844 4.40625-1.605469 1.601562-3.199219 3.105468-4.886719 4.539062-.3125.285156-.644531.550782-.992187.796875-1.679688 1.402344-3.429688 2.710938-5.25 3.921875-1.585938 1.175782-3.242188 2.257813-4.957032 3.238282-2.015625 1.191406-4.066406 2.265624-6.113281 3.203124-.800781.421876-1.824219.796876-2.816406 1.222657-2.519531 1.152343-5.117188 2.121093-7.777344 2.902343-.398437.144532-.886719.296876-1.414063.449219-.230468.070313-.480468.136719-.726562.199219l-.914062.257812 51.320312 51.320313zm0 0" fill="#70b7e5"/><path d="m207.609375 373.871094 1.261719.34375c1.601562.359375 3.449218.800781 5.335937 1.074218 2.015625.285157 4.136719.503907 6.335938.65625 1.058593.054688 2.28125.054688 3.457031.054688s2.398438 0 3.488281-.0625c2.183594-.152344 4.304688-.363281 6.34375-.65625 1.847657-.28125 3.671875-.707031 5.503907-1.121094l1.054687-.289062c.800781-.214844 1.601563-.414063 2.402344-.703125 2.160156-.625 4.269531-1.40625 6.320312-2.335938 1.039063-.441406 1.597657-.65625 2.183594-.945312 1.773437-.847657 3.40625-1.695313 4.96875-2.613281 1.3125-.753907 2.578125-1.578126 3.796875-2.472657 1.574219-1.050781 3.085938-2.183593 4.539062-3.394531.238282-.199219.488282-.386719.75-.558594 1.320313-1.136718 2.601563-2.34375 3.871094-3.617187 1.273438-1.269531 2.496094-2.566407 3.625-3.902344.171875-.253906.359375-.496094.558594-.726563 1.101562-1.300781 2.128906-2.664062 3.074219-4.082031 1.023437-1.371093 1.960937-2.800781 2.808593-4.289062.910157-1.535157 1.757813-3.199219 2.542969-4.796875.351563-.722656.566407-1.289063.800781-1.859375.949219-2.070313 1.75-4.210938 2.398438-6.398438.402344-1.152343.601562-1.945312.800781-2.75l.34375-1.265625c.359375-1.601562.800781-3.449218 1.070313-5.335937.289062-2.015625.507812-4.136719.65625-6.335938.097656-1.089843.097656-2.296875.097656-3.488281 0-35.347656-28.652344-64-64-64s-64 28.652344-64 64c0 1.183594 0 2.398438.0625 3.488281.152344 2.183594.363281 4.304688.65625 6.34375.28125 1.847657.707031 3.671875 1.121094 5.503907l.289062 1.054687c.214844.800781.414063 1.601563.703125 2.402344.628907 2.160156 1.410157 4.273437 2.34375 6.320312.433594 1.039063.648438 1.597657.9375 2.183594.753907 1.628906 1.609375 3.210937 2.558594 4.734375.738281 1.394531 1.582031 2.734375 2.519531 4 1.050782 1.578125 2.1875 3.101562 3.410156 4.554688.195313.234374.378907.484374.550782.742187 1.136718 1.320313 2.34375 2.601563 3.617187 3.871094 1.269531 1.273437 2.566407 2.496093 3.902344 3.625.253906.175781.5.367187.734375.566406 1.304688 1.09375 2.660156 2.117187 4.074219 3.066406 1.382812 1.023438 2.828125 1.96875 4.320312 2.832031 1.503907.886719 3.136719 1.734376 4.800781 2.519532.71875.351562 1.285157.566406 1.855469.800781 2.070313.949219 4.210938 1.753906 6.398438 2.398437 1.152343.449219 1.945312.648438 2.753906.863282zm-15.609375-61.871094v1.464844c.078125 1.183594.207031 2.527344.375 3.671875.625 4.375-2.417969 8.425781-6.789062 9.046875-.378907.054687-.761719.082031-1.144532.082031-3.980468-.003906-7.351562-2.933594-7.914062-6.875-.207032-1.488281-.382813-3.199219-.503906-5.023437 0-.574219 0-1.144532 0-1.757813-.113282-12.816406 4.886718-25.152344 13.890624-34.273437 9.003907-9.121094 21.269532-14.28125 34.085938-14.335938 4.417969 0 8 3.582031 8 8s-3.582031 8-8 8c-17.671875 0-32 14.328125-32 32zm0 0" fill="#70b7e5"/><path d="m297.976562 281.640625c.542969 1.320313 1.007813 2.679687 1.480469 4 .367188 1.039063.757813 2.054687 1.085938 3.121094.449219 1.46875.800781 2.992187 1.160156 4.503906.234375.972656.519531 1.933594.722656 2.933594.375 1.890625.636719 3.824219.878907 5.761719.078124.648437.222656 1.277343.289062 1.933593v.105469h144.40625v-304h-448v304h144.398438v-.070312c.066406-.65625.210937-1.289063.289062-1.9375.242188-1.9375.503906-3.871094.878906-5.761719.203125-1 .488282-1.957031.722656-2.933594.367188-1.511719.710938-3.03125 1.160157-4.503906.328125-1.066407.71875-2.082031 1.085937-3.121094.472656-1.351563.9375-2.710937 1.480469-4 .433594-1.054687.9375-2.078125 1.410156-3.113281.582031-1.246094 1.148438-2.496094 1.789063-3.703125.546875-1.03125 1.136718-2.015625 1.722656-3.015625.679688-1.160156 1.351562-2.320313 2.085938-3.441406.640624-.972657 1.320312-1.917969 2-2.871094.800781-1.070313 1.550781-2.144532 2.402343-3.199219.847657-1.054687 1.484375-1.808594 2.253907-2.6875.863281-1 1.746093-1.976563 2.65625-2.929687.910156-.949219 1.640624-1.664063 2.488281-2.472657.847656-.804687 1.9375-1.796875 2.9375-2.664062.878906-.796875 1.765625-1.511719 2.679687-2.238281 1.039063-.800782 2.109375-1.601563 3.199219-2.398438.933594-.671875 1.886719-1.335938 2.855469-1.976562 1.128906-.730469 2.289062-1.417969 3.457031-2.097657.992187-.574219 1.984375-1.160156 3.007813-1.695312 1.214843-.640625 2.464843-1.214844 3.71875-1.792969 1.023437-.480469 2.046874-.96875 3.097656-1.398438 1.320312-.542968 2.679687-1.007812 4-1.480468 1.039062-.359375 2.0625-.753906 3.125-1.070313 1.441406-.433593 2.929687-.800781 4.402344-1.136719 1.015624-.242187 2.015624-.527343 3.046874-.730468 1.664063-.335938 3.367188-.550782 5.074219-.796875.878907-.121094 1.742188-.296875 2.628907-.386719 2.609374-.253906 5.257812-.398438 7.929687-.398438s5.320313.144532 7.925781.398438c.890625.089844 1.753906.265625 2.632813.386719 1.703125.222656 3.410156.4375 5.074219.796875 1.03125.203125 2.03125.488281 3.046874.730468 1.472657.359376 2.960938.703126 4.398438 1.136719 1.066406.316407 2.089844.710938 3.128906 1.070313 1.351563.472656 2.710938.9375 4 1.480468 1.046875.429688 2.074219.917969 3.097656 1.398438 1.253907.578125 2.503907 1.152344 3.71875 1.792969 1.023438.535156 2.015626 1.121093 3.007813 1.695312 1.167969.679688 2.328125 1.367188 3.457031 2.097657.96875.640624 1.917969 1.304687 2.855469 1.976562 1.085937.796875 2.160156 1.597656 3.199219 2.398438.914062.726562 1.800781 1.472656 2.679687 2.238281 1 .867187 1.984375 1.753906 2.9375 2.664062.953125.914063 1.671875 1.601563 2.488281 2.472657.816407.875 1.792969 1.929687 2.65625 2.929687.800782.878906 1.519532 1.765625 2.253907 2.6875.738281.917969 1.601562 2.105469 2.402343 3.199219.679688.953125 1.359376 1.898437 2 2.871094.734376 1.121093 1.40625 2.28125 2.085938 3.441406.585938 1 1.175781 1.984375 1.722656 3.015625.636719 1.207031 1.207032 2.457031 1.789063 3.703125.496093 1 1 2.027344 1.433593 3.082031zm-217.976562-217.640625h288c4.417969 0 8 3.582031 8 8s-3.582031 8-8 8h-288c-4.417969 0-8-3.582031-8-8s3.582031-8 8-8zm0 48h288c4.417969 0 8 3.582031 8 8s-3.582031 8-8 8h-288c-4.417969 0-8-3.582031-8-8s3.582031-8 8-8zm0 64c-4.417969 0-8-3.582031-8-8s3.582031-8 8-8h288c4.417969 0 8 3.582031 8 8s-3.582031 8-8 8zm0 0" fill="#70b7e5"/><path d="m203.320312 389.289062c-1.160156-.3125-2.289062-.625-3.425781-1.023437-2.648437-.792969-5.242187-1.773437-7.75-2.9375-.890625-.335937-1.765625-.714844-2.617187-1.144531-1.902344-.902344-3.953125-1.976563-5.910156-3.136719-1.894532-1.089844-3.726563-2.292969-5.480469-3.597656-1.664063-1.113281-3.265625-2.316407-4.800781-3.601563-.519532-.375-1.011719-.785156-1.472657-1.230468-1.199219-.96875-2.808593-2.480469-4.40625-4.089844-1.601562-1.605469-3.105469-3.199219-4.535156-4.886719 0 0-.410156-.480469-.800781-.992187-1.394532-1.683594-2.699219-3.433594-3.914063-5.25-1.246093-1.648438-2.355469-3.398438-3.3125-5.230469-1.1875-1.878907-2.253906-3.828125-3.199219-5.839844-.421874-.800781-.800781-1.824219-1.222656-2.816406-1.15625-2.519531-2.125-5.117188-2.90625-7.777344-.140625-.398437-.292968-.886719-.445312-1.414063-.074219-.230468-.136719-.480468-.199219-.726562-.066406-.25-.167969-.59375-.257813-.914062l-51.273437 51.320312h48.609375c4.417969 0 8 3.582031 8 8v48.609375zm0 0" fill="#70b7e5"/></svg>
