<svg xmlns="http://www.w3.org/2000/svg" viewBox="0 0 70.6 60.2">
  <defs>
    <style>
      .cls-1 {
        fill: #2d3e51;
      }

      .cls-2 {
        fill: #2d3e51;
      }

      .cls-3 {
        fill: #2d3e51;
      }
    </style>
  </defs>
  <title>logo-on</title>
  <g id="Calque_2" data-name="Calque 2">
    <g id="Calque_1-2" data-name="Calque 1">
      <path class="cls-1" d="M34.7.4c1.1-1,1.8.2,2.5.6L68.1,18.6c1.6,1,2.6,1.9,2.5,4q-.1,17.4,0,34.8c.1,3-.9,2.7-2.9,1.6L50.5,49.3l-.3-14.9c0-1.2.2-2.5-1.2-3.2-4.7-2.4-8.8-5.6-13.7-7.4,0-4.6.1-9.3,0-13.9S36,3.5,34.7.4Z"/>
      <path class="cls-2" d="M21,49.1c4.3-3.7,9.6-5.7,14.3-8.8L47,47.1c1,.5,2.5.7,2.6,2.3C45.7,51.5,41.8,53.6,38,56a4.5,4.5,0,0,1-5.4-.1C28.8,53.5,24.9,51.3,21,49.1Z"/>
      <path class="cls-3" d="M35.3,23.8V40.3c-4.7,3.1-10,5.1-14.3,8.8h-.3l-.3-.2V47.8c0-4.2.1-8.5,0-12.7-.1-2.3.6-3.8,2.7-4.8C27.3,28.4,30.9,25.3,35.3,23.8Z"/>
      <path class="cls-2" d="M34.7.4c1.3,3.1.5,6.4.6,9.5s0,9.3,0,13.9h0c-4.4,1.5-8,4.6-12.2,6.5-2.1,1-2.8,2.5-2.7,4.8.1,4.2,0,8.5,0,12.7l-.6,1.3L.9,60.2c-1.3-1-.8-2.1-.8-3V23.1c0-1.6-.1-3,1.7-4Z"/>
      <path class="cls-2" d="M20.4,47.8v1.1l-.6.2Z"/>
    </g>
  </g>
</svg>
