<?xml version="1.0" encoding="utf-8"?>
<svg xmlns="http://www.w3.org/2000/svg" xmlns:xlink="http://www.w3.org/1999/xlink" version= "1.1" width="1080px" height="1812px" viewBox="0 0 1080 1812">
<g id="layer1">
<g>
<g style="fill:rgb(255, 255, 255); fill-opacity:1.0; stroke-linejoin: miter">
<path d="M454.4736,668.5062Q453.93933,668.5062,453.39725,668.5295Q448.75296,668.7285,444.7021,670.7115Q440.7747,672.55994,437.81116,675.7888Q434.84207,678.8887,433.21286,683.09436Q431.7071,687.16547,431.9061,691.80975Q432.07193,695.68,433.38226,699.11346Q434.68704,702.41797,437.00732,705.29114Q430.73935,709.8248,427.16757,716.9571Q423.59583,724.08936,423.95514,732.4749Q424.23706,739.0543,427.0715,744.8782Q429.7714,750.5785,434.3456,754.77686Q438.9143,758.8462,444.95926,761.17206Q450.19897,763.1246,455.96448,763.1246Q456.70248,763.1246,457.4491,763.0926Q464.80255,762.77747,470.86227,759.41595Q476.92755,756.1835,481.2217,750.82965L493.46448,762.06635L506.183,748.20917L493.80017,736.72L505.7833,723.79895L492.4587,711.4454L480.35208,724.5009L465.14398,710.4186Q470.57526,707.47174,473.82632,701.9041Q476.9539,696.47107,476.672,689.89166Q476.473,685.2473,474.49,681.1965Q472.6415,677.26904,469.41266,674.30554Q466.31833,671.46545,462.11267,669.83624Q458.51675,668.5062,454.4736,668.5062 Z"/>
</g>
</g>
<g>
<g style="fill:rgb(255, 255, 255); fill-opacity:1.0; stroke-linejoin: miter">
<path d="M335.99356,630.07904Q335.84866,630.07904,335.70306,630.0803Q330.297,630.1272,325.8419,631.9333Q321.48987,633.6345,318.398,636.78046Q315.30524,639.8224,313.5739,643.9962Q311.94653,648.1692,311.98886,653.0554L312.27444,686.0117Q312.3123,690.3782,314.1139,694.3134Q315.9155,698.2487,319.1645,701.2357Q322.3086,704.1196,326.7943,705.84827Q331.05704,707.43,336.0936,707.43Q336.23315,707.43,336.37332,707.4288Q341.67545,707.3828,346.02655,705.57764Q350.3786,703.8764,353.47137,700.8344Q356.56412,697.7925,358.29547,693.61865Q359.92282,689.44574,359.8805,684.55945L359.98444,684.55853Q359.87958,684.4555,359.87958,684.4555L359.8787,684.3515Q359.8733,683.7278,359.97183,683.1031Q359.96643,682.4793,359.9619,681.9595L359.7304,655.241Q359.7259,654.7212,359.61563,653.9943Q359.61023,653.37054,359.6048,652.74677L359.6039,652.6428Q359.56158,647.7566,357.75815,643.61334Q356.05872,639.46924,352.9128,636.3774Q349.7678,633.3895,345.38602,631.66Q341.12546,630.07904,335.99356,630.07904 Z"/>
</g>
</g>
<g>
<g style="fill:rgb(255, 255, 255); fill-opacity:1.0; stroke-linejoin: miter">
<path d="M394.85883,630.50616Q394.71393,630.50616,394.56833,630.50745Q389.16223,630.5543,384.70715,632.3604Q380.35513,634.06165,377.26328,637.2076Q374.1705,640.2495,372.43918,644.42334Q370.8118,648.5963,370.85413,653.48254L371.1397,686.43884Q371.17755,690.8053,372.97916,694.74054Q374.78076,698.67584,378.02975,701.66284Q381.17386,704.54675,385.65958,706.2754Q389.9223,707.8571,394.95886,707.8571Q395.09842,707.8571,395.2386,707.8559Q400.5407,707.80994,404.89185,706.00476Q409.24387,704.3035,412.3366,701.26154Q415.42938,698.2196,417.1607,694.0458Q418.7881,689.87286,418.74576,684.9866L418.84973,684.98566Q418.74484,684.8826,418.74484,684.8826L418.74396,684.7786Q418.73856,684.1549,418.8371,683.5302Q418.8317,682.90643,418.8272,682.3866L418.59567,655.66815Q418.59116,655.1483,418.4809,654.42145Q418.4755,653.79767,418.4701,653.1739L418.46918,653.06995Q418.42682,648.1837,416.6234,644.04047Q414.92398,639.89636,411.77808,636.8045Q408.63306,633.81665,404.25128,632.0871Q399.99072,630.50616,394.85883,630.50616 Z"/>
</g>
</g>
<g>
<g style="fill:rgb(255, 255, 255); fill-opacity:1.0; stroke-linejoin: miter">
<path d="M453.79996,632.68915Q453.65506,632.68915,453.50946,632.6904Q448.1034,632.7373,443.6483,634.5434Q439.29626,636.2446,436.2044,639.39056Q433.11163,642.4325,431.3803,646.6063Q429.75293,650.7793,429.79526,655.6655L430.08084,688.6218Q430.11868,692.9883,431.9203,696.9235Q433.7219,700.8588,436.9709,703.8458Q440.115,706.72974,444.6007,708.4584Q448.86343,710.0401,453.9,710.0401Q454.03955,710.0401,454.17972,710.0389Q459.48184,709.9929,463.83295,708.18774Q468.185,706.4865,471.27777,703.4445Q474.3705,700.4026,476.10187,696.22876Q477.72922,692.05585,477.6869,687.16956L477.79083,687.16864Q477.68597,687.0656,477.68597,687.0656L477.6851,686.9616Q477.6797,686.3379,477.77823,685.7132Q477.77283,685.0894,477.7683,684.5696L477.5368,657.85114Q477.5323,657.3313,477.42203,656.60443Q477.41663,655.98065,477.4112,655.3569L477.4103,655.2529Q477.36798,650.3667,475.56454,646.22345Q473.8651,642.07935,470.7192,638.9875Q467.5742,635.99963,463.1924,634.2701Q458.93185,632.68915,453.79996,632.68915 Z"/>
</g>
</g>
<g>
<g style="fill:rgb(255, 255, 255); fill-opacity:1.0; stroke-linejoin: miter">
<path d="M280.1,629.6L265.5,644.9L277.4,656.8L280.1,653.2L280.1,704.0L296.9,704.0L296.9,629.6 Z"/>
</g>
</g>
<g style="fill:rgb(255, 255, 255); fill-opacity:1.0; stroke-linejoin: miter">
<path d="M828.1251,775.43445L513.7192,775.4345L199.31328,775.4346L828.1251,775.43445"/>
</g>
<g>
<g style="fill:rgb(255, 255, 255); fill-opacity:1.0; stroke-linejoin: miter">
<path d="M531.8295,686.44226L513.99927,686.53906L498.59207,702.8614L511.29037,715.4226L514.1352,711.5863L514.42786,765.5016L532.2581,765.40485L531.8295,686.44226 Z"/>
</g>
</g>
<g>
<g style="fill:rgb(255, 255, 255); fill-opacity:1.0; stroke-linejoin: miter">
<path d="M360.05066,720.58923Q360.04288,720.58923,360.03503,720.5893Q359.1756,720.59564,358.62234,721.33026Q358.06876,722.0219,358.0754,722.9243Q358.08267,723.91266,358.64636,724.59607Q359.20486,725.27325,360.05368,725.27325Q360.06155,725.27325,360.06946,725.2732Q360.9289,725.2669,361.4395,724.57556Q361.9501,723.8842,361.9858,722.89557Q361.97885,721.9502,361.41516,721.2667Q360.89917,720.58923,360.05066,720.58923 Z M386.66037,732.3833Q387.76263,732.3833,388.57605,733.14264Q389.3982,733.9101,389.41275,735.8868Q389.4238,737.3908,389.2175,738.5526Q389.01117,739.7144,388.4165,740.66425Q387.82187,741.614,386.75357,742.4384Q385.685,743.2198,383.97214,744.0489L383.907,735.1967Q383.8969,733.82166,384.70798,733.08514Q385.4764,732.3919,386.63666,732.38336Q386.64853,732.3833,386.66037,732.3833 Z M324.8243,732.83813Q325.92657,732.83813,326.74,733.5974Q327.56213,734.3649,327.5767,736.3416Q327.58774,737.84564,327.38144,739.00745Q327.1751,740.16925,326.58044,741.119Q325.9858,742.06885,324.9175,742.8932Q323.8489,743.6746,322.13605,744.5037L322.07095,735.65155Q322.06085,734.2765,322.87192,733.5399Q323.64035,732.84674,324.8006,732.8382Q324.81247,732.83813,324.8243,732.83813 Z M361.9043,729.3422L358.1228,729.37006L358.31592,755.6257L362.0974,755.59784L361.9043,729.3422 Z M356.40393,729.3827L352.49353,729.41144L350.16553,745.93054L347.5948,729.4475L343.2976,729.47906L348.21762,755.69995L351.74127,755.674L356.40393,729.3827 Z M340.50397,729.156Q340.48157,729.156,340.45898,729.1562Q339.2128,729.16534,338.4014,729.8589Q337.63266,730.50916,337.29395,731.1992L336.42218,729.52966L333.9298,729.548L334.12292,755.8036L337.90442,755.7758L337.75842,735.9229Q337.74893,734.6338,338.5161,733.7687Q339.28357,732.94653,340.27194,732.9393Q340.28763,732.93915,340.30313,732.93915Q341.13687,732.93915,341.4347,733.2745L342.69885,729.87024Q341.97403,729.156,340.50397,729.156 Z M402.36777,728.7011Q402.3315,728.7011,402.29504,728.70135Q400.87698,728.7118,399.67725,729.1933Q398.5205,729.67456,397.6674,730.5403Q396.81396,731.3631,396.35013,732.56976Q395.886,733.73346,395.8964,735.15155Q395.90967,736.95636,396.5214,738.327Q397.09015,739.698,398.04373,740.8083Q398.73727,741.6197,399.5158,742.3016Q400.29437,742.9834,401.11557,743.62195Q401.8938,744.26086,402.67203,744.8997Q403.45026,745.53864,404.1435,746.30707Q404.6206,746.90515,404.8838,747.6338Q405.14667,748.31946,405.15427,749.35077Q405.1745,752.10095,402.25244,752.12244Q402.23776,752.12256,402.22314,752.12256Q400.99707,752.12256,400.22708,751.36383Q399.4482,750.639,399.43906,749.3928L399.4318,748.4045L395.6443,747.6158L395.65756,749.4206Q395.6683,750.88165,396.14984,752.08136Q396.63138,753.2811,397.5401,754.1339Q398.40585,754.987,399.61255,755.45087Q400.7919,755.9042,402.21423,755.9042Q402.24716,755.9042,402.28024,755.90393Q404.04208,755.891,405.32678,755.2799Q406.56854,754.6691,407.4204,753.6315Q408.22958,752.63715,408.6498,751.34485Q409.0271,750.05286,409.01666,748.63477Q409.0097,747.6894,408.74493,746.7459Q408.48047,745.8454,408.00208,745.0754Q407.08893,743.62103,405.66202,742.4282Q404.27838,741.27814,402.93805,740.17065Q401.59772,739.0632,400.6435,737.86694Q399.68927,736.6707,399.67822,735.1667Q399.6684,733.8346,400.35028,733.056Q400.98914,732.2778,402.19235,732.2689Q402.20502,732.2688,402.21765,732.2688Q403.36066,732.2688,404.0888,733.0285Q404.7817,733.75397,404.7912,735.04315L404.79816,735.9885L408.50003,736.82074L408.48676,735.0159Q408.46588,732.1798,406.86298,730.4297Q405.2798,728.7011,402.36777,728.7011 Z M386.67072,728.81647Q386.6406,728.81647,386.6104,728.8167Q385.23532,728.82684,384.03528,729.2654Q382.83493,729.661,381.93854,730.4841Q381.08508,731.3069,380.5783,732.51385Q380.11414,733.67755,380.12552,735.22455L380.23077,749.53406Q380.24213,751.08105,380.76697,752.3234Q381.2485,753.5232,382.11426,754.3763Q382.9797,755.1864,384.1431,755.6076Q385.27917,756.0189,386.6171,756.0189Q386.6493,756.0189,386.68158,756.0187Q388.01367,756.00885,389.21375,755.5703Q390.3708,755.1321,391.2239,754.2663Q392.07733,753.44354,392.58383,752.19354Q393.04767,750.9869,393.0363,749.4399L393.02396,747.764L389.20868,749.0383L389.21182,749.468Q389.22162,750.8002,388.4965,751.536Q387.77103,752.22894,386.65375,752.2372Q386.63925,752.2373,386.6248,752.2373Q385.44168,752.2373,384.71466,751.5209Q384.02206,750.8384,384.01227,749.5063L384.00278,748.2171Q386.443,746.95294,388.1966,745.8227Q389.95023,744.6925,391.05737,743.3092Q392.16452,741.9259,392.70987,740.11694Q393.21225,738.30835,393.19266,735.6441Q393.18033,733.96826,392.6552,732.68286Q392.13037,731.4405,391.2213,730.54474Q390.31262,729.69196,389.10593,729.2281Q387.9689,728.81647,386.67072,728.81647 Z M371.1734,728.93054Q371.13562,728.93054,371.0977,728.93085Q369.7226,728.9409,368.5219,729.2936Q367.32126,729.6462,366.42453,730.42633Q365.57047,731.16315,365.06366,732.3701Q364.59982,733.57684,364.6128,735.3386L364.71802,749.6482Q364.72974,751.23816,365.25424,752.43756Q365.73578,753.63727,366.6445,754.49005Q367.50995,755.3002,368.7163,755.72107Q369.89447,756.1321,371.23358,756.1321Q371.26562,756.1321,371.29776,756.13184Q372.62988,756.122,373.82993,755.6835Q374.9873,755.28815,375.8837,754.4651Q376.7804,753.68494,377.28693,752.435Q377.7937,751.22797,377.78137,749.5521L377.76904,747.8762L373.99673,749.1502L373.99988,749.5799Q374.01,750.955,373.1986,751.64856Q372.3872,752.3421,371.26993,752.35034Q371.2565,752.35046,371.2431,752.35046Q370.1002,752.35046,369.28787,751.63434Q368.50934,750.9525,368.49954,749.62036L368.3943,735.31085Q368.38416,733.9357,369.19525,733.1992Q369.96368,732.506,371.1239,732.49744Q371.13638,732.4974,371.1488,732.4974Q372.25037,732.4974,373.06302,733.21375Q373.88452,733.89526,373.89465,735.2704L373.90286,736.38763L377.68436,736.3598L377.67615,735.24255Q377.6635,733.5237,377.13898,732.3243Q376.61447,731.1249,375.7064,730.35803Q374.7983,729.5912,373.59256,729.2563Q372.46292,728.93054,371.1734,728.93054 Z M324.835,729.2713Q324.80472,729.2713,324.77435,729.27155Q323.39926,729.2817,322.19922,729.7202Q320.99887,730.1158,320.10248,730.9389Q319.24905,731.7617,318.74225,732.9687Q318.27808,734.1324,318.28946,735.6794L318.3947,749.9889Q318.4061,751.5359,318.9309,752.77826Q319.41245,753.97797,320.2782,754.8311Q321.14365,755.64124,322.30704,756.0624Q323.44327,756.47375,324.7814,756.47375Q324.81342,756.47375,324.84552,756.4735Q326.17764,756.4637,327.3777,756.0251Q328.53473,755.58685,329.38785,754.7211Q330.24127,753.8983,330.74777,752.6484Q331.2116,751.4417,331.20023,749.8947L331.1879,748.2188L327.3726,749.4931L327.37576,749.92285Q327.38556,751.25494,326.6604,751.99084Q325.93497,752.6838,324.8177,752.69196Q324.8032,752.6921,324.78873,752.6921Q323.60562,752.6921,322.8786,751.9757Q322.186,751.2932,322.1762,749.96106L322.16672,748.67194Q324.60693,747.4077,326.36057,746.2775Q328.11417,745.14734,329.2213,743.764Q330.32846,742.3807,330.8738,740.5718Q331.3762,738.7632,331.3566,736.09894Q331.34427,734.42303,330.81912,733.1377Q330.2943,731.8953,329.38528,730.9996Q328.47656,730.1467,327.26987,729.6829Q326.133,729.2713,324.835,729.2713 Z M308.97668,721.7816Q308.94086,721.7816,308.90488,721.78186Q305.72498,721.8053,304.06302,723.7084Q302.40103,725.61145,302.42377,728.7054Q302.44275,731.2837,303.22888,732.9968Q303.97205,734.7103,305.27444,736.5057Q306.09912,737.6169,307.01007,738.7705Q307.87772,739.8815,308.74567,741.03534Q309.57068,742.1896,310.31003,743.3874Q311.0494,744.58527,311.57486,745.9136Q311.92496,746.77045,312.06018,747.62897Q312.19543,748.4874,312.20364,749.6047Q312.21375,750.9798,311.4902,751.93054Q310.76633,752.8383,309.2623,752.84937Q309.25104,752.8494,309.2398,752.8494Q308.1359,752.8494,307.23663,752.0478Q306.37122,751.2376,306.36267,750.0774L306.3554,749.08905L302.5679,748.3004L302.58118,750.1052Q302.59128,751.4803,303.0728,752.68005Q303.51108,753.8371,304.37714,754.73315Q305.2429,755.5863,306.4499,756.0931Q307.5891,756.5894,309.05396,756.5894Q309.08585,756.5894,309.11792,756.5892Q310.9657,756.57556,312.2931,755.9212Q313.57748,755.26715,314.4287,754.14355Q315.23724,753.06323,315.61325,751.59937Q315.9466,750.1788,315.9352,748.63184Q315.92352,747.0419,315.4401,745.58435Q314.99963,744.12646,314.259,742.7567Q313.56165,741.4297,312.64978,740.14716Q311.73788,738.8646,310.82663,737.6681Q310.13245,736.77075,309.3084,735.7454Q308.48438,734.7201,307.7889,733.6509Q307.09348,732.58167,306.61255,731.4679Q306.17496,730.3967,306.16736,729.3654Q306.1623,728.67786,306.28616,727.9894Q306.36737,727.3442,306.70703,726.783Q307.00403,726.26514,307.56015,725.9173Q308.07327,725.5697,308.9327,725.56335Q308.94388,725.5633,308.95502,725.5633Q310.05817,725.5633,310.87244,726.3656Q311.6949,727.1761,311.7031,728.29333L311.7107,729.32465L315.4982,730.1133L315.4846,728.2655Q315.46057,724.9997,313.6008,723.3804Q311.7646,721.7816,308.97668,721.7816 Z"/>
</g>
</g>
<g style="fill:rgb(255, 255, 255); fill-opacity:1.0; stroke-linejoin: miter">
<path d="M470.10434,666.6283L470.10434,666.6283Q472.98477,666.58575,475.4033,666.395C475.49573,666.38776,475.58777,666.383,475.68045,666.38086L475.68045,666.38086Q476.56552,666.36035,477.2508,666.3828L477.27292,666.3836Q480.17963,666.4918,482.33057,667.0486L482.3311,667.0487Q486.07693,668.0188,488.49158,669.7697L488.01282,669.4625Q492.05774,671.7441,491.45926,676.253C491.40182,676.6857,491.288,677.109,491.1206,677.5122L491.1206,677.5122Q490.32138,679.4374,488.26465,680.737L488.2645,680.73706Q487.45016,681.2516,486.38208,681.7028L486.60324,681.60297Q484.22134,682.7485,481.13943,683.28955L481.19342,683.2798Q477.91385,683.89276,476.375,683.97925L476.4209,683.97644L471.0387,684.3287C470.9233,684.33624,470.8077,684.3398,470.69208,684.3393L470.69208,684.3393L467.47488,684.32635C464.71347,684.31525,462.48392,682.06775,462.49503,679.30634C462.50613,676.5449,464.7537,674.31537,467.5151,674.3265L467.5151,674.3265L470.7323,674.3394L470.38568,674.35004L475.76788,673.9978L475.81378,673.995Q476.70938,673.94464,479.3562,673.44995L479.4102,673.4402Q481.13205,673.1379,482.2692,672.591C482.34204,672.55597,482.4159,672.5226,482.49036,672.49115L482.49036,672.49115Q482.80283,672.35913,482.923,672.2832L482.92285,672.28326Q482.3007,672.6764,481.8849,673.678L481.54623,674.9372Q481.25494,677.1318,483.09998,678.1725C482.93466,678.0792,482.77487,677.9767,482.62122,677.8653L482.62122,677.8653Q481.73837,677.2251,479.82407,676.7294L479.8246,676.7295Q478.72357,676.44446,476.90097,676.37665L476.9231,676.37744Q476.5175,676.36414,475.9122,676.3782L476.18936,676.364Q473.45132,676.5799,470.2521,676.6272C467.491,676.668,465.21957,674.4627,465.17877,671.7016C465.13797,668.9405,467.34323,666.6691,470.10434,666.6283 Z"/>
</g>
<g style="fill:#70b7e5; fill-opacity:1.0; stroke-linejoin: miter">
<path d="M492.94385,629.3487L492.94388,629.3487Q494.69125,633.0632,495.00668,633.83105L495.00504,633.8271Q495.0189,633.8607,495.02975,633.8877L494.8643,633.5205L494.86453,633.521L494.97644,633.76044Q495.37405,634.6733,495.56073,635.2021L495.56085,635.20245Q495.7927,635.8593,495.8744,636.43146L487.01163,634.0257Q490.19702,630.0212,494.12772,633.29675L494.0469,633.23083Q495.75967,634.59863,495.9322,636.9152L495.93216,636.9149Q495.9989,637.8106,496.11682,642.6913C496.1835,645.4519,493.99963,647.7439,491.239,647.81055C488.4784,647.8772,486.18643,645.69336,486.11975,642.93274L486.11975,642.93274Q486.00793,638.3038,485.9598,637.6582L485.95978,637.6579Q486.11118,639.6909,487.80667,641.0449L487.72586,640.979Q491.65436,644.25275,494.83762,640.2509C493.5751,641.8227,491.52457,642.487,489.60324,641.9605C487.68192,641.434,486.25647,639.81726,485.97485,637.84515L485.97485,637.84515Q486.03317,638.2536,486.13098,638.5307L486.1311,638.53107Q486.0634,638.3393,485.80835,637.7537L485.92026,637.99316L485.92,637.9927C485.7898,637.7112,485.77176,637.6682,485.75455,637.6255L485.75455,637.6255Q485.75552,637.6279,485.75827,637.6346L485.75662,637.6306Q485.53635,637.0943,483.8951,633.6055C482.71967,631.1068,483.79236,628.12823,486.2911,626.95276C488.78986,625.7773,491.76837,626.85,492.94385,629.3487 Z"/>
</g>
<g style="fill:#70b7e5; fill-opacity:1.0; stroke-linejoin: miter">
<path d="M363.88367,659.56616L363.88367,659.56616Q363.92514,660.57587,363.9576,660.9212C363.96967,661.0495,363.97678,661.1782,363.9789,661.30707L363.9789,661.30707Q363.97693,661.1864,363.97052,661.1022L363.97064,661.10364Q363.9931,661.40027,364.17023,662.9969L364.18225,663.1188L364.18286,663.12585L364.18146,663.11Q364.2353,663.712,364.2507,663.9411L364.25064,663.9401Q364.25885,664.06165,364.26236,664.1626L364.21136,663.6038Q364.24686,663.8433,364.2651,664.13446L364.2651,664.13464Q364.29797,664.659,364.34198,666.58606L364.3427,666.6236Q364.34814,666.9789,364.3405,667.3408L364.3416,667.2216Q364.34186,667.3103,364.33936,667.41516L364.33936,667.416Q364.33337,667.6649,364.3025,668.30084L364.30594,668.2141Q364.30347,668.2934,364.30286,668.3768L364.30298,668.3337Q364.30325,668.5434,364.30453,668.60693L364.30453,668.60815Q364.3036,668.5607,364.2997,668.4916L364.3028,668.5534Q364.33163,669.2141,364.33673,669.45056L364.3367,669.4492Q364.33926,669.5663,364.33835,669.664L364.33624,669.46466Q364.33783,669.51624,364.33887,669.5698L364.3389,669.5724Q364.3449,669.8873,364.33243,670.34076L364.32986,670.4145Q364.31155,670.8473,364.29266,671.0986L364.2925,671.1005Q364.28326,671.22296,364.2719,671.3308L364.27014,671.34735L364.1778,672.1982L364.19888,671.94354Q364.19702,671.97595,364.19653,671.98663L364.19666,671.9844Q364.20465,671.81177,364.19464,671.59485C364.2008,671.7283,364.20163,671.86176,364.1971,671.99524L364.19705,671.9971Q364.2013,671.87366,364.19894,671.78687L364.199,671.78864Q364.19974,671.81665,364.20288,671.88666C364.20532,671.94104,364.20685,671.995,364.20752,672.0494L364.20752,672.0494Q364.21097,672.33344,364.19263,672.6058C364.18762,672.68005,364.18094,672.7543,364.17264,672.82825L364.17264,672.82825L364.10654,673.4165C363.7982,676.16064,361.32364,678.13525,358.5795,677.8269C355.83536,677.51855,353.86075,675.04395,354.1691,672.2998L354.1691,672.2998L354.2352,671.71155L354.2152,671.934Q354.20688,672.0577,354.20825,672.1706L354.2129,672.3333Q354.20566,672.17126,354.20255,672.0549L354.2026,672.05664Q354.19666,671.8364,354.2029,671.6543L354.20532,672.0565Q354.19397,671.81055,354.2074,671.5209L354.20752,671.5186Q354.21057,671.45374,354.21512,671.37384C354.21994,671.2892,354.227,671.2041,354.2362,671.1192L354.2362,671.1192L354.32855,670.2684L354.32678,670.2849Q354.32263,670.3243,354.32095,670.3466L354.3208,670.3486Q354.32742,670.2606,354.33878,669.992L354.3362,670.06573Q354.3423,669.84485,354.34073,669.76306L354.34076,669.7656Q354.34076,669.76624,354.34088,669.76984C354.33887,669.70447,354.33813,669.6374,354.33878,669.5705L354.33878,669.5705Q354.33823,669.629,354.33908,669.66797L354.33905,669.6666Q354.33627,669.5387,354.31232,668.9893L354.3154,669.05115Q354.3092,668.9406,354.30655,668.8075L354.30655,668.8087Q354.30338,668.65155,354.30298,668.34674L354.3031,668.30365Q354.30457,668.1031,354.31082,667.90247L354.31427,667.81573Q354.33917,667.3031,354.34222,667.1759L354.34222,667.17676Q354.34155,667.20483,354.34167,667.24896L354.34277,667.12976Q354.34656,666.9512,354.34387,666.7769L354.3446,666.81445Q354.3051,665.086,354.2847,664.76L354.2847,664.7602Q354.29288,664.8907,354.3194,665.06964C354.29202,664.8852,354.27493,664.69824,354.2684,664.51086L354.2684,664.51086Q354.2705,664.57153,354.27335,664.61346L354.2733,664.6125Q354.26532,664.4942,354.2212,664.0006L354.2198,663.98474L354.21918,663.97766L354.2312,664.09955Q354.03473,662.3286,353.99915,661.8585L353.99927,661.86Q353.98315,661.6481,353.98026,661.47186L354.00156,661.8577Q353.94437,661.24994,353.8921,659.97644C353.7788,657.21735,355.92365,654.8888,358.68274,654.7755C361.44183,654.66223,363.7704,656.80707,363.88367,659.56616 Z"/>
</g>
<g style="fill:#70b7e5; fill-opacity:1.0; stroke-linejoin: miter">
<path d="M424.00647,660.0289L424.00647,660.0289Q424.04794,661.0386,424.0804,661.3839C424.09247,661.5122,424.09958,661.6409,424.1017,661.7698L424.1017,661.7698Q424.09973,661.6491,424.09332,661.5649L424.09344,661.56635Q424.1159,661.863,424.29303,663.4596L424.30365,663.5657Q424.358,664.17377,424.37347,664.40344L424.37354,664.4041Q424.38132,664.52014,424.3849,664.6183L424.33417,664.0665Q424.36966,664.306,424.3879,664.59717L424.3879,664.5973Q424.42078,665.1215,424.46478,667.04877L424.4655,667.0863Q424.47095,667.4416,424.46332,667.8035L424.46442,667.6843Q424.46466,667.773,424.46216,667.87787L424.46216,667.8788Q424.45618,668.1275,424.4253,668.76355L424.42874,668.6768Q424.42627,668.7561,424.42566,668.8395L424.42578,668.7964Q424.42606,669.0061,424.42734,669.06964L424.42734,669.07086Q424.4264,669.02344,424.42252,668.9543L424.4256,669.0161Q424.45444,669.6768,424.45953,669.91327L424.4595,669.9119Q424.46207,670.029,424.46115,670.1267L424.45905,669.92737Q424.46063,669.97894,424.46167,670.03253L424.4617,670.0351Q424.4677,670.35004,424.45523,670.80347L424.4528,670.8741L424.45267,670.877L424.4525,670.88043Q424.43427,671.311,424.4154,671.56146L424.41547,671.5605Q424.40616,671.68414,424.39502,671.7908L424.39294,671.81006L424.3006,672.6609L424.32166,672.4068Q424.31985,672.4382,424.31937,672.4488L424.31946,672.44727Q424.32748,672.27374,424.3174,672.0566C424.3236,672.19025,424.32446,672.3242,424.31992,672.45795L424.31985,672.4598Q424.3241,672.3361,424.32175,672.2492L424.3218,672.2512Q424.32254,672.2783,424.3257,672.3496C424.32812,672.4037,424.32965,672.45795,424.33032,672.5121L424.33032,672.5121Q424.33377,672.79614,424.31543,673.0685C424.31042,673.14276,424.30374,673.217,424.29544,673.29095L424.29544,673.29095L424.22934,673.8792C423.921,676.62335,421.44644,678.59796,418.7023,678.2896C415.95816,677.98126,413.98355,675.50665,414.2919,672.7625L414.2919,672.7625L414.358,672.17426L414.338,672.3967Q414.32968,672.5204,414.33105,672.6333L414.33566,672.7958Q414.32846,672.63477,414.32535,672.51746L414.3254,672.5195Q414.31946,672.2994,414.3257,672.117L414.32816,672.5202Q414.31674,672.2741,414.33014,671.9846L414.33023,671.9831Q414.33328,671.9178,414.33795,671.836C414.34274,671.7519,414.3498,671.6668,414.359,671.5819L414.359,671.5819L414.45135,670.7311L414.44928,670.75037Q414.44534,670.78815,414.4436,670.8111L414.44366,670.8101Q414.45026,670.72284,414.4615,670.45734L414.46133,670.46075L414.46146,670.4578L414.459,670.52844Q414.4651,670.30756,414.46353,670.22577L414.46356,670.22833Q414.46356,670.22894,414.46368,670.23254C414.46167,670.1672,414.46094,670.1001,414.46158,670.0332L414.46158,670.0332Q414.46103,670.09174,414.46188,670.1307L414.46185,670.12933Q414.45908,670.0014,414.43512,669.452L414.4382,669.51385Q414.432,669.4033,414.42935,669.2702L414.42935,669.2714Q414.42618,669.11426,414.42578,668.80945L414.4259,668.76636Q414.42737,668.5658,414.43362,668.3652L414.43707,668.27844Q414.46198,667.7658,414.46503,667.63855L414.46503,667.63947Q414.46436,667.66754,414.46448,667.7117L414.46558,667.59247Q414.46936,667.4139,414.46667,667.2396L414.4674,667.27716Q414.42792,665.54877,414.4075,665.2228L414.4075,665.2229Q414.41568,665.3534,414.4422,665.53235C414.41516,665.35016,414.3982,665.1657,414.39148,664.9806L414.39148,664.9806Q414.3936,665.0383,414.396,665.0744L414.39606,665.0751Q414.38797,664.9548,414.34338,664.4562L414.354,664.56226Q414.15753,662.7913,414.12195,662.3212L414.12207,662.3227Q414.10596,662.1108,414.10306,661.9346L414.12436,662.32043Q414.06717,661.71265,414.0149,660.43915C413.9016,657.68005,416.04645,655.3515,418.80554,655.2382C421.56464,655.12494,423.8932,657.2698,424.00647,660.0289 Z"/>
</g>
</g>
</svg>