<svg width="270" height="140" xmlns="http://www.w3.org/2000/svg">

 <g>
  <title>background</title>
  <rect fill="none" id="canvas_background" height="142" width="272" y="-1" x="-1"/>
 </g>
 <g>
  <title>Layer 1</title>
  <g id="layer1">
   <g id="svg_1">
    <g id="svg_2" fill="rgb(0, 0, 0)">
     <path id="svg_3" d="m190.0361,42.5062q-0.53427,0 -1.07635,0.0233q-4.64429,0.199 -8.69515,2.182q-3.9274,1.84844 -6.89094,5.0773q-2.96909,3.0999 -4.5983,7.30556q-1.50576,4.07111 -1.30676,8.71539q0.16583,3.87025 1.47616,7.30371q1.30478,3.30451 3.62506,6.17768q-6.26797,4.53366 -9.83975,11.66596q-3.57174,7.13226 -3.21243,15.5178q0.28192,6.5794 3.11636,12.4033q2.6999,5.7003 7.2741,9.89866q4.5687,4.06934 10.61366,6.3952q5.23971,1.95254 11.00522,1.95254q0.738,0 1.48462,-0.032q7.35345,-0.31513 13.41317,-3.67665q6.06528,-3.23245 10.35943,-8.5863l12.24278,11.2367l12.71852,-13.85718l-12.38283,-11.48917l11.98313,-12.92105l-13.3246,-12.35355l-12.10662,13.0555l-15.2081,-14.0823q5.43128,-2.94686 8.68234,-8.5145q3.12758,-5.43303 2.84568,-12.01244q-0.199,-4.64436 -2.182,-8.69516q-1.8485,-3.92746 -5.07734,-6.89096q-3.09433,-2.84009 -7.29999,-4.4693q-3.59592,-1.33004 -7.63907,-1.33004z"/>
    </g>
   </g>
   <g id="svg_4">
    <g id="svg_5" fill="rgb(0, 0, 0)">
     <path id="svg_6" d="m71.55606,4.07904q-0.1449,0 -0.2905,0.00126q-5.40606,0.0469 -9.86116,1.853q-4.35203,1.7012 -7.4439,4.84716q-3.09276,3.04194 -4.8241,7.21574q-1.62737,4.173 -1.58504,9.0592l0.28558,32.9563q0.03786,4.3665 1.83946,8.3017q1.8016,3.9353 5.0506,6.9223q3.1441,2.8839 7.6298,4.61257q4.26274,1.58173 9.2993,1.58173q0.13955,0 0.27972,-0.0012q5.30213,-0.046 9.65323,-1.85116q4.35205,-1.70124 7.44482,-4.74324q3.09275,-3.0419 4.8241,-7.21575q1.62735,-4.17291 1.58503,-9.0592l0.10394,-0.00092q-0.10486,-0.10303 -0.10486,-0.10303l-0.00088,-0.104q-0.0054,-0.6237 0.09313,-1.2484q-0.0054,-0.6238 -0.00993,-1.1436l-0.2315,-26.7185q-0.0045,-0.5198 -0.11477,-1.2467q-0.0054,-0.62376 -0.01083,-1.24753l-0.0009,-0.10397q-0.04232,-4.8862 -1.84575,-9.02946q-1.69943,-4.1441 -4.84535,-7.23594q-3.145,-2.9879 -7.52678,-4.7174q-4.26056,-1.58096 -9.39246,-1.58096z"/>
    </g>
   </g>
   <g id="svg_7">
    <g id="svg_8" fill="rgb(0, 0, 0)">
     <path id="svg_9" d="m130.42133,4.50616q-0.1449,0 -0.2905,0.00129q-5.4061,0.04685 -9.86118,1.85295q-4.35202,1.70125 -7.44387,4.8472q-3.09278,3.0419 -4.8241,7.21574q-1.62738,4.17296 -1.58505,9.0592l0.28557,32.9563q0.03785,4.36646 1.83946,8.3017q1.8016,3.9353 5.05059,6.9223q3.14411,2.88391 7.62983,4.61256q4.26272,1.5817 9.29928,1.5817q0.13956,0 0.27974,-0.0012q5.3021,-0.04596 9.65325,-1.85114q4.35202,-1.70126 7.44475,-4.74322q3.09278,-3.04194 4.8241,-7.21574q1.6274,-4.17294 1.58506,-9.0592l0.10397,-0.00094q-0.10489,-0.10306 -0.10489,-0.10306l-0.00088,-0.104q-0.0054,-0.6237 0.09314,-1.2484q-0.0054,-0.62377 -0.0099,-1.1436l-0.23153,-26.71845q-0.00451,-0.51985 -0.11477,-1.2467q-0.0054,-0.62378 -0.0108,-1.24755l-0.00092,-0.10395q-0.04236,-4.88625 -1.84578,-9.02948q-1.69942,-4.14411 -4.84532,-7.23597q-3.14502,-2.98785 -7.5268,-4.7174q-4.26056,-1.58094 -9.39245,-1.58094z"/>
    </g>
   </g>
   <g id="svg_10">
    <g id="svg_11" fill="rgb(0, 0, 0)">
     <path id="svg_12" d="m189.36246,6.68915q-0.1449,0 -0.2905,0.00125q-5.40606,0.0469 -9.86116,1.853q-4.35204,1.7012 -7.4439,4.84716q-3.09277,3.04194 -4.8241,7.21574q-1.62737,4.173 -1.58504,9.0592l0.28558,32.9563q0.03784,4.3665 1.83946,8.3017q1.8016,3.9353 5.0506,6.9223q3.1441,2.88394 7.6298,4.6126q4.26273,1.5817 9.2993,1.5817q0.13955,0 0.27972,-0.0012q5.30212,-0.046 9.65323,-1.85116q4.35205,-1.70124 7.44482,-4.74324q3.09273,-3.0419 4.8241,-7.21574q1.62735,-4.17291 1.58503,-9.0592l0.10393,-0.00092q-0.10486,-0.10304 -0.10486,-0.10304l-0.00087,-0.104q-0.0054,-0.6237 0.09313,-1.2484q-0.0054,-0.6238 -0.00993,-1.1436l-0.2315,-26.71846q-0.0045,-0.51984 -0.11477,-1.24671q-0.0054,-0.62378 -0.01083,-1.24753l-0.0009,-0.104q-0.04232,-4.8862 -1.84576,-9.02945q-1.69944,-4.1441 -4.84534,-7.23595q-3.145,-2.98787 -7.5268,-4.7174q-4.26055,-1.58095 -9.39244,-1.58095z"/>
    </g>
   </g>
   <g id="svg_13">
    <g id="svg_14" fill="rgb(0, 0, 0)">
     <path id="svg_15" d="m15.6625,3.6l-14.6,15.3l11.9,11.9l2.7,-3.6l0,50.8l16.8,0l0,-74.4l-16.8,0z"/>
    </g>
   </g>
   <g id="svg_16" fill="rgb(0, 0, 0)">
    <path id="svg_17" d="m563.6876,149.43445l-314.4059,0.00005l-314.40592,0.0001l628.81182,-0.00015"/>
   </g>
   <g id="svg_18">
    <g id="svg_19" fill="rgb(0, 0, 0)">
     <path id="svg_20" d="m267.392,60.44226l-17.83023,0.0968l-15.4072,16.32234l12.6983,12.5612l2.84483,-3.8363l0.29266,53.9153l17.83024,-0.09675l-0.4286,-78.96259z"/>
    </g>
   </g>
   <g id="svg_21">
    <g id="svg_22" fill="rgb(0, 0, 0)">
     <path id="svg_23" d="m95.61316,94.58923q-0.00778,0 -0.01563,0.00007q-0.85943,0.00634 -1.41269,0.74096q-0.55358,0.69164 -0.54694,1.59404q0.00727,0.98836 0.57096,1.67177q0.5585,0.67718 1.40732,0.67718q0.00787,0 0.01578,-0.00005q0.85944,-0.0063 1.37004,-0.69764q0.5106,-0.69136 0.5463,-1.67999q-0.00695,-0.94537 -0.57064,-1.62887q-0.51599,-0.67747 -1.3645,-0.67747zm26.60971,11.79407q1.10226,0 1.91568,0.75934q0.82215,0.76746 0.8367,2.74416q0.01105,1.504 -0.19525,2.6658q-0.20633,1.1618 -0.801,2.11165q-0.59463,0.94975 -1.66293,1.77415q-1.06857,0.7814 -2.78143,1.6105l-0.06514,-8.8522q-0.0101,-1.37504 0.80098,-2.11156q0.76842,-0.69324 1.92868,-0.70178q0.01187,-0.00006 0.02371,-0.00006zm-61.83607,0.45483q1.10227,0 1.9157,0.75927q0.82213,0.7675 0.8367,2.7442q0.01104,1.50404 -0.19526,2.66585q-0.20634,1.1618 -0.801,2.11155q-0.59464,0.94985 -1.66294,1.7742q-1.0686,0.7814 -2.78145,1.6105l-0.0651,-8.85215q-0.0101,-1.37505 0.80097,-2.11165q0.76843,-0.69316 1.92868,-0.7017q0.01187,-0.00007 0.0237,-0.00007zm37.08,-3.49593l-3.7815,0.02786l0.19312,26.25564l3.78148,-0.02786l-0.1931,-26.25564zm-5.50037,0.0405l-3.9104,0.02874l-2.328,16.5191l-2.57073,-16.48304l-4.2972,0.03156l4.92002,26.22089l3.52365,-0.02595l4.66266,-26.2913zm-15.89996,-0.2267q-0.0224,0 -0.04499,0.0002q-1.24618,0.00914 -2.05758,0.7027q-0.76874,0.65026 -1.10745,1.3403l-0.87177,-1.66954l-2.49238,0.01834l0.19312,26.2556l3.7815,-0.0278l-0.146,-19.8529q-0.00949,-1.2891 0.75768,-2.1542q0.76747,-0.82217 1.75584,-0.8294q0.01569,-0.00015 0.03119,-0.00015q0.83374,0 1.13157,0.33535l1.26415,-3.40426q-0.72482,-0.71424 -2.19488,-0.71424zm61.8638,-0.4549q-0.03627,0 -0.07273,0.00025q-1.41806,0.01045 -2.61779,0.49195q-1.15675,0.48126 -2.00985,1.347q-0.85344,0.8228 -1.31727,2.02946q-0.46413,1.1637 -0.45373,2.58179q0.01327,1.80481 0.625,3.17545q0.56875,1.371 1.52233,2.4813q0.69354,0.8114 1.47207,1.4933q0.77857,0.6818 1.59977,1.32035q0.77823,0.63891 1.55646,1.27775q0.77823,0.63894 1.47147,1.40737q0.4771,0.59808 0.7403,1.32673q0.26287,0.68566 0.27047,1.71697q0.02023,2.75018 -2.90183,2.77167q-0.01468,0.00012 -0.0293,0.00012q-1.22607,0 -1.99606,-0.75873q-0.77888,-0.72483 -0.78802,-1.97103l-0.00726,-0.9883l-3.7875,-0.7887l0.01326,1.8048q0.01074,1.46105 0.49228,2.66076q0.48154,1.19974 1.39026,2.05254q0.86575,0.8531 2.07245,1.31697q1.17935,0.45333 2.60168,0.45333q0.03293,0 0.06601,-0.00027q1.76184,-0.01293 3.04654,-0.62403q1.24176,-0.6108 2.09362,-1.6484q0.80918,-0.99435 1.2294,-2.28665q0.3773,-1.29199 0.36686,-2.71008q-0.00696,-0.94537 -0.27173,-1.88887q-0.26446,-0.9005 -0.74285,-1.6705q-0.91315,-1.45437 -2.34006,-2.6472q-1.38364,-1.15006 -2.72397,-2.25755q-1.34033,-1.10745 -2.29455,-2.30371q-0.95423,-1.19624 -0.96528,-2.70024q-0.00982,-1.3321 0.67206,-2.1107q0.63886,-0.7782 1.84207,-0.7871q0.01267,-0.0001 0.0253,-0.0001q1.14301,0 1.87115,0.7597q0.6929,0.72547 0.7024,2.01465l0.00696,0.94535l3.70187,0.83224l-0.01327,-1.80484q-0.02088,-2.8361 -1.62378,-4.5862q-1.58318,-1.7286 -4.49521,-1.7286zm-15.69705,0.11537q-0.03012,0 -0.06032,0.00023q-1.37508,0.01014 -2.57512,0.4487q-1.20035,0.3956 -2.09674,1.2187q-0.85346,0.8228 -1.36024,2.02975q-0.46416,1.1637 -0.45278,2.7107l0.10525,14.30951q0.01136,1.54699 0.5362,2.78934q0.48153,1.1998 1.34729,2.0529q0.86544,0.8101 2.02884,1.2313q1.13607,0.4113 2.474,0.4113q0.0322,0 0.06448,-0.0002q1.33209,-0.00985 2.53217,-0.4484q1.15705,-0.4382 2.01015,-1.304q0.85343,-0.82276 1.35993,-2.07276q0.46384,-1.20664 0.45247,-2.75364l-0.01234,-1.6759l-3.81528,1.2743l0.00314,0.4297q0.0098,1.3322 -0.71532,2.068q-0.72547,0.69294 -1.84275,0.7012q-0.0145,0.0001 -0.02895,0.0001q-1.18312,0 -1.91014,-0.7164q-0.6926,-0.6825 -0.70239,-2.0146l-0.00949,-1.2892q2.44022,-1.26416 4.19382,-2.3944q1.75363,-1.1302 2.86077,-2.5135q1.10715,-1.3833 1.6525,-3.19226q0.50238,-1.80859 0.48279,-4.47284q-0.01233,-1.67584 -0.53746,-2.96124q-0.52483,-1.24236 -1.4339,-2.13812q-0.90868,-0.85278 -2.11537,-1.31664q-1.13703,-0.41163 -2.43521,-0.41163zm-15.49732,0.11407q-0.03778,0 -0.0757,0.00031q-1.3751,0.01005 -2.5758,0.36275q-1.20064,0.3526 -2.09737,1.13273q-0.85406,0.73682 -1.36087,1.94377q-0.46384,1.20674 -0.45086,2.9685l0.10522,14.3096q0.01172,1.58996 0.53622,2.78936q0.48154,1.19971 1.39026,2.05249q0.86545,0.81015 2.0718,1.23102q1.17817,0.41103 2.51728,0.41103q0.03204,0 0.06418,-0.00026q1.33212,-0.00984 2.53217,-0.44834q1.15737,-0.39535 2.05377,-1.2184q0.8967,-0.78016 1.40323,-2.0301q0.50677,-1.20703 0.49444,-2.8829l-0.01233,-1.6759l-3.77231,1.274l0.00315,0.4297q0.01012,1.3751 -0.80128,2.06866q-0.8114,0.69354 -1.92867,0.70178q-0.01343,0.00012 -0.02683,0.00012q-1.1429,0 -1.95523,-0.71612q-0.77853,-0.68184 -0.78833,-2.01398l-0.10524,-14.30951q-0.01014,-1.37515 0.80095,-2.11165q0.76843,-0.6932 1.92865,-0.70176q0.01248,-0.00004 0.0249,-0.00004q1.10157,0 1.91422,0.71635q0.8215,0.68151 0.83163,2.05665l0.00821,1.11723l3.7815,-0.02783l-0.00821,-1.11725q-0.01265,-1.71885 -0.53717,-2.91825q-0.52451,-1.1994 -1.43258,-1.96627q-0.9081,-0.76683 -2.11384,-1.10173q-1.12964,-0.32576 -2.41916,-0.32576zm-46.3384,0.34076q-0.03028,0 -0.06065,0.00025q-1.37509,0.01015 -2.57513,0.44865q-1.20035,0.3956 -2.09674,1.2187q-0.85343,0.8228 -1.36023,2.0298q-0.46417,1.1637 -0.45279,2.7107l0.10524,14.3095q0.0114,1.547 0.5362,2.78936q0.48155,1.19971 1.3473,2.05284q0.86545,0.81014 2.02884,1.2313q1.13623,0.41135 2.47436,0.41135q0.03202,0 0.06412,-0.00025q1.33212,-0.0098 2.53218,-0.4484q1.15703,-0.43825 2.01015,-1.304q0.85342,-0.8228 1.35992,-2.0727q0.46383,-1.2067 0.45246,-2.7537l-0.01233,-1.6759l-3.8153,1.2743l0.00316,0.42975q0.0098,1.33209 -0.71536,2.06799q-0.72543,0.69296 -1.8427,0.70112q-0.0145,0.00014 -0.02897,0.00014q-1.18311,0 -1.91013,-0.7164q-0.6926,-0.6825 -0.7024,-2.01464l-0.00948,-1.28912q2.44021,-1.26424 4.19385,-2.39444q1.7536,-1.13016 2.86073,-2.5135q1.10716,-1.3833 1.6525,-3.1922q0.5024,-1.8086 0.4828,-4.47286q-0.01233,-1.67591 -0.53748,-2.96124q-0.52482,-1.2424 -1.43384,-2.1381q-0.90872,-0.8529 -2.11541,-1.3167q-1.13687,-0.4116 -2.43487,-0.4116zm-15.85832,-7.4897q-0.03582,0 -0.0718,0.00026q-3.1799,0.02344 -4.84186,1.92654q-1.66199,1.90305 -1.63925,4.997q0.01898,2.5783 0.80511,4.2914q0.74317,1.7135 2.04556,3.5089q0.82468,1.1112 1.73563,2.2648q0.86765,1.111 1.7356,2.26484q0.82501,1.15426 1.56436,2.35206q0.73937,1.19787 1.26483,2.5262q0.3501,0.85685 0.48532,1.71537q0.13525,0.85843 0.14346,1.97573q0.01011,1.3751 -0.71344,2.32584q-0.72387,0.90776 -2.2279,0.91883q-0.01126,0.00003 -0.0225,0.00003q-1.1039,0 -2.00317,-0.8016q-0.86541,-0.8102 -0.87396,-1.9704l-0.00727,-0.98835l-3.7875,-0.78865l0.01328,1.8048q0.0101,1.3751 0.49162,2.57485q0.43828,1.15705 1.30434,2.0531q0.86576,0.85315 2.07276,1.35995q1.1392,0.4963 2.60406,0.4963q0.03189,0 0.06396,-0.0002q1.84778,-0.01364 3.17518,-0.668q1.28438,-0.65405 2.1356,-1.77765q0.80854,-1.08032 1.18455,-2.54418q0.33335,-1.42057 0.32195,-2.96753q-0.01168,-1.58994 -0.4951,-3.04749q-0.44047,-1.45789 -1.1811,-2.82765q-0.69735,-1.327 -1.60922,-2.60954q-0.9119,-1.28256 -1.82315,-2.47906q-0.69418,-0.89735 -1.51823,-1.9227q-0.82402,-1.0253 -1.5195,-2.0945q-0.69542,-1.06923 -1.17635,-2.183q-0.43759,-1.0712 -0.44519,-2.1025q-0.00506,-0.68754 0.1188,-1.376q0.08121,-0.6452 0.42087,-1.2064q0.297,-0.51786 0.85312,-0.8657q0.51312,-0.3476 1.37255,-0.35395q0.01118,-0.00005 0.02232,-0.00005q1.10315,0 1.91742,0.8023q0.82246,0.8105 0.83066,1.92773l0.0076,1.03132l3.7875,0.78865l-0.0136,-1.8478q-0.02403,-3.2658 -1.8838,-4.8851q-1.8362,-1.5988 -4.62412,-1.5988z"/>
    </g>
   </g>
   <g id="svg_24" fill="rgb(0, 0, 0)">
    <path id="svg_25" d="m205.66684,40.6283l0,0q2.88043,-0.04255 5.29896,-0.2333c0.09243,-0.00724 0.18447,-0.012 0.27715,-0.01414l0,0q0.88507,-0.02051 1.57035,0.00194l0.02212,0.0008q2.90671,0.1082 5.05765,0.665l0.00053,0.0001q3.74583,0.9701 6.16048,2.721l-0.47876,-0.3072q4.04492,2.2816 3.44644,6.7905c-0.05744,0.4327 -0.17126,0.856 -0.33866,1.2592l0,0q-0.79922,1.9252 -2.85595,3.2248l-0.00015,0.00006q-0.81434,0.51454 -1.88242,0.96574l0.22116,-0.09983q-2.3819,1.14553 -5.46381,1.68658l0.05399,-0.00975q-3.27957,0.61296 -4.81842,0.69945l0.0459,-0.00281l-5.3822,0.35226c-0.1154,0.00754 -0.231,0.0111 -0.34662,0.0106l0,0l-3.2172,-0.01295c-2.76141,-0.0111 -4.99096,-2.2586 -4.97985,-5.02001c0.0111,-2.76144 2.25867,-4.99097 5.02007,-4.97984l0,0l3.2172,0.0129l-0.34662,0.01064l5.3822,-0.35224l0.0459,-0.0028q0.8956,-0.05036 3.54242,-0.54505l0.054,-0.00975q1.72185,-0.3023 2.859,-0.8492c0.07284,-0.03503 0.1467,-0.0684 0.22116,-0.09985l0,0q0.31247,-0.13202 0.43264,-0.20795l-0.00015,0.00006q-0.62215,0.39314 -1.03795,1.39474l-0.33867,1.2592q-0.29129,2.1946 1.55375,3.2353c-0.16532,-0.0933 -0.32511,-0.1958 -0.47876,-0.3072l0,0q-0.88285,-0.6402 -2.79715,-1.1359l0.00053,0.0001q-1.10103,-0.28504 -2.92363,-0.35285l0.02213,0.00079q-0.4056,-0.0133 -1.0109,0.00076l0.27716,-0.0142q-2.73804,0.2159 -5.93726,0.2632c-2.7611,0.0408 -5.03253,-2.1645 -5.07333,-4.9256c-0.0408,-2.7611 2.16446,-5.0325 4.92557,-5.0733z"/>
   </g>
   <g id="svg_26" fill="rgb(0, 0, 0)">
    <path id="svg_27" d="m228.50635,3.3487l0.00003,0q1.74737,3.7145 2.0628,4.48235l-0.00164,-0.00395q0.01386,0.0336 0.02471,0.0606l-0.16545,-0.3672l0.00023,0.0005l0.11191,0.23944q0.39761,0.91286 0.58429,1.44166l0.00012,0.00035q0.23185,0.65685 0.31355,1.22901l-8.86277,-2.40576q3.18539,-4.0045 7.11609,-0.72895l-0.08082,-0.06592q1.71277,1.3678 1.8853,3.68437l-0.00004,-0.0003q0.06674,0.8957 0.18466,5.7764c0.06668,2.7606 -2.11719,5.0526 -4.87782,5.11925c-2.7606,0.06665 -5.05257,-2.11719 -5.11925,-4.87781l0,0q-0.11182,-4.62894 -0.15995,-5.27454l-0.00002,-0.0003q0.1514,2.033 1.84689,3.387l-0.08081,-0.0659q3.9285,3.27375 7.11176,-0.7281c-1.26252,1.5718 -3.31305,2.2361 -5.23438,1.7096c-1.92132,-0.5265 -3.34677,-2.14324 -3.62839,-4.11535l0,0q0.05832,0.40845 0.15613,0.68555l0.00012,0.00037q-0.0677,-0.19177 -0.32275,-0.77737l0.11191,0.23946l-0.00026,-0.00046c-0.1302,-0.2815 -0.14824,-0.3245 -0.16545,-0.3672l0,0q0.00097,0.0024 0.00372,0.0091l-0.00165,-0.004q-0.22027,-0.5363 -1.86152,-4.0251c-1.17543,-2.4987 -0.10274,-5.47727 2.396,-6.65274c2.49876,-1.17546 5.47727,-0.10276 6.65275,2.39594z"/>
   </g>
   <g id="svg_28" fill="rgb(255, 255, 255)">
    <path id="svg_29" d="m99.44617,33.56616l0,0q0.04147,1.00971 0.07393,1.35504c0.01207,0.1283 0.01918,0.257 0.0213,0.38587l0,0q-0.00197,-0.12067 -0.00838,-0.20487l0.00012,0.00144q0.02246,0.29663 0.19959,1.89326l0.01202,0.1219l0.00061,0.00705l-0.0014,-0.01585q0.05384,0.602 0.06924,0.8311l-0.00006,-0.001q0.00821,0.12155 0.01172,0.2225l-0.051,-0.5588q0.0355,0.2395 0.05374,0.53066l0,0.00018q0.03287,0.52436 0.07688,2.45142l0.00072,0.03754q0.00544,0.3553 -0.0022,0.7172l0.0011,-0.1192q0.00026,0.0887 -0.00224,0.19356l0,0.00084q-0.00599,0.2489 -0.03686,0.88484l0.00344,-0.08674q-0.00247,0.0793 -0.00308,0.1627l0.00012,-0.0431q0.00027,0.2097 0.00155,0.27323l0,0.00122q-0.00093,-0.04745 -0.00483,-0.11655l0.0031,0.0618q0.02883,0.6607 0.03393,0.89716l-0.00003,-0.00136q0.00256,0.1171 0.00165,0.2148l-0.00211,-0.19934q0.00159,0.05158 0.00263,0.10514l0.00003,0.0026q0.006,0.3149 -0.00647,0.76836l-0.00257,0.07374q-0.01831,0.4328 -0.0372,0.6841l-0.00016,0.0019q-0.00924,0.12246 -0.0206,0.2303l-0.00176,0.01655l-0.09234,0.85085l0.02108,-0.25466q-0.00186,0.03241 -0.00235,0.04309l0.00013,-0.00223q0.00799,-0.17263 -0.00202,-0.38955c0.00616,0.13345 0.00699,0.26691 0.00246,0.40039l-0.00005,0.00186q0.00425,-0.12344 0.00189,-0.21023l0.00006,0.00177q0.00074,0.02801 0.00388,0.09802c0.00244,0.05438 0.00397,0.10834 0.00464,0.16274l0,0q0.00345,0.28404 -0.01489,0.5564c-0.00501,0.07425 -0.01169,0.1485 -0.01999,0.22245l0,0l-0.0661,0.58825c-0.30834,2.74414 -2.7829,4.71875 -5.52704,4.4104c-2.74414,-0.30835 -4.71875,-2.78295 -4.4104,-5.5271l0,0l0.0661,-0.58825l-0.02,0.22245q-0.00832,0.1237 -0.00695,0.2366l0.00465,0.1627q-0.00724,-0.16204 -0.01035,-0.2784l0.00005,0.00174q-0.00594,-0.22024 0.0003,-0.40234l0.00242,0.4022q-0.01135,-0.24595 0.00208,-0.5356l0.00012,-0.0023q0.00305,-0.06486 0.0076,-0.14476c0.00482,-0.08464 0.01188,-0.16974 0.02108,-0.25464l0,0l0.09235,-0.8508l-0.00177,0.0165q-0.00415,0.0394 -0.00583,0.0617l-0.00015,0.002q0.00662,-0.088 0.01798,-0.3566l-0.00258,0.07373q0.0061,-0.22088 0.00453,-0.30267l0.00003,0.00254q0,0.00064 0.00012,0.00424c-0.00201,-0.06537 -0.00275,-0.13244 -0.0021,-0.19934l0,0q-0.00055,0.0585 0.0003,0.09747l-0.00003,-0.00137q-0.00278,-0.1279 -0.02673,-0.6773l0.00308,0.06185q-0.0062,-0.11055 -0.00885,-0.24365l0,0.0012q-0.00317,-0.15715 -0.00357,-0.46196l0.00012,-0.04309q0.00147,-0.20055 0.00772,-0.40118l0.00345,-0.08674q0.0249,-0.51263 0.02795,-0.63983l0,0.00086q-0.00067,0.02807 -0.00055,0.0722l0.0011,-0.1192q0.00379,-0.17856 0.0011,-0.35286l0.00073,0.03755q-0.0395,-1.72845 -0.0599,-2.05445l0,0.0002q0.00818,0.1305 0.0347,0.30944c-0.02738,-0.18444 -0.04447,-0.3714 -0.051,-0.55878l0,0q0.0021,0.06067 0.00495,0.1026l-0.00005,-0.00096q-0.00798,-0.1183 -0.0521,-0.6119l-0.0014,-0.01586l-0.00062,-0.00708l0.01202,0.12189q-0.19647,-1.77095 -0.23205,-2.24105l0.00012,0.0015q-0.01612,-0.2119 -0.01901,-0.38814l0.0213,0.38584q-0.05719,-0.60776 -0.10946,-1.88126c-0.1133,-2.75909 2.03155,-5.08764 4.79064,-5.20094c2.75909,-0.11327 5.08766,2.03157 5.20093,4.79066z"/>
   </g>
   <g id="svg_30" fill="rgb(255, 255, 255)">
    <path id="svg_31" d="m159.56897,34.0289l0,0q0.04147,1.0097 0.07393,1.355c0.01207,0.1283 0.01918,0.257 0.0213,0.3859l0,0q-0.00197,-0.1207 -0.00838,-0.2049l0.00012,0.00145q0.02246,0.29665 0.19959,1.89325l0.01062,0.1061q0.05435,0.60807 0.06982,0.83774l0.00007,0.00066q0.00778,0.11604 0.01136,0.2142l-0.05073,-0.5518q0.03549,0.2395 0.05373,0.53067l0,0.00013q0.03288,0.5242 0.07688,2.45147l0.00072,0.03753q0.00545,0.3553 -0.00218,0.7172l0.0011,-0.1192q0.00024,0.0887 -0.00226,0.19357l0,0.00093q-0.00598,0.2487 -0.03686,0.88475l0.00344,-0.08675q-0.00247,0.0793 -0.00308,0.1627l0.00012,-0.0431q0.00028,0.2097 0.00156,0.27324l0,0.00122q-0.00094,-0.04742 -0.00482,-0.11656l0.00308,0.0618q0.02884,0.6607 0.03393,0.89717l-0.00003,-0.00137q0.00257,0.1171 0.00165,0.2148l-0.0021,-0.19933q0.00158,0.05157 0.00262,0.10516l0.00003,0.00257q0.006,0.31494 -0.00647,0.76837l-0.00243,0.07063l-0.00013,0.0029l-0.00017,0.00343q-0.01823,0.43057 -0.0371,0.68103l0.00007,-0.00096q-0.00931,0.12364 -0.02045,0.2303l-0.00208,0.01926l-0.09234,0.85084l0.02106,-0.2541q-0.00181,0.0314 -0.00229,0.042l0.00009,-0.00153q0.00802,-0.17353 -0.00206,-0.39067c0.0062,0.13365 0.00706,0.2676 0.00252,0.40135l-0.00007,0.00185q0.00425,-0.1237 0.0019,-0.2106l0.00005,0.002q0.00074,0.0271 0.0039,0.0984c0.00242,0.0541 0.00395,0.10835 0.00462,0.1625l0,0q0.00345,0.28404 -0.01489,0.5564c-0.00501,0.07426 -0.01169,0.1485 -0.01999,0.22245l0,0l-0.0661,0.58825c-0.30834,2.74415 -2.7829,4.71876 -5.52704,4.4104c-2.74414,-0.30834 -4.71875,-2.78295 -4.4104,-5.5271l0,0l0.0661,-0.58824l-0.02,0.22244q-0.00832,0.1237 -0.00695,0.2366l0.00461,0.1625q-0.0072,-0.16103 -0.01031,-0.27834l0.00005,0.00204q-0.00594,-0.2201 0.0003,-0.4025l0.00246,0.4032q-0.01142,-0.2461 0.00198,-0.5356l0.00009,-0.0015q0.00305,-0.0653 0.00772,-0.1471c0.00479,-0.0841 0.01185,-0.1692 0.02105,-0.2541l0,0l0.09235,-0.8508l-0.00207,0.01927q-0.00394,0.03778 -0.00568,0.06073l0.00006,-0.001q0.0066,-0.08726 0.01784,-0.35276l-0.00017,0.00341l0.00013,-0.00295l-0.00246,0.07064q0.0061,-0.22088 0.00453,-0.30267l0.00003,0.00256q0,0.00061 0.00012,0.00421c-0.00201,-0.06534 -0.00274,-0.13244 -0.0021,-0.19934l0,0q-0.00055,0.05854 0.0003,0.0975l-0.00003,-0.00137q-0.00277,-0.12793 -0.02673,-0.67733l0.00308,0.06185q-0.0062,-0.11055 -0.00885,-0.24365l0,0.0012q-0.00317,-0.15714 -0.00357,-0.46195l0.00012,-0.04309q0.00147,-0.20056 0.00772,-0.40116l0.00345,-0.08676q0.02491,-0.51264 0.02796,-0.63989l0,0.00092q-0.00067,0.02807 -0.00055,0.07223l0.0011,-0.11923q0.00378,-0.17857 0.00109,-0.35287l0.00073,0.03756q-0.03948,-1.72839 -0.0599,-2.05436l0,0.0001q0.00818,0.1305 0.0347,0.30945c-0.02704,-0.18219 -0.044,-0.36665 -0.05072,-0.55175l0,0q0.00212,0.0577 0.00452,0.0938l0.00006,0.0007q-0.00809,-0.1203 -0.05268,-0.6189l0.01062,0.10606q-0.19647,-1.77096 -0.23205,-2.24106l0.00012,0.0015q-0.01611,-0.2119 -0.01901,-0.3881l0.0213,0.38583q-0.05719,-0.60778 -0.10946,-1.88128c-0.1133,-2.7591 2.03155,-5.08765 4.79064,-5.20095c2.7591,-0.11326 5.08766,2.0316 5.20093,4.7907z"/>
   </g>
  </g>
 </g>
</svg>