<svg id="logo-text" data-name="Calque 1" xmlns="http://www.w3.org/2000/svg" viewBox="0 0 251.8 80.9">
  <defs>
    <style>
      .cls-1 {
        font-size: 46px;
        fill: #2980b9;
        font-family: OpenSans-Extrabold, Open Sans;
        font-weight: 700;
        letter-spacing: -0.03em;
      }

      .cls-2 {
        font-size: 37px;
        fill: #2c3e50;
        letter-spacing: -0.03em;
      }

      .cls-3 {
        fill: #fefefe;
      }

      .cls-4 {
        fill: #2a80b8;
      }

      .cls-5 {
        fill: #2d3e51;
      }

      .cls-6 {
        fill: #f7f9fa;
      }

      .cls-7 {
        fill: #2a7eb5;
      }

      .cls-8 {
        fill: #2f4053;
      }
    </style>
  </defs>
  <title>logo</title>
  <text class="cls-1" transform="translate(89.8 42.1)">1001<tspan class="cls-2"><tspan x="0" y="28">SERVICES</tspan></tspan></text>
  <text x="-610.4" y="-453.2"></text>
  <g>
    <path class="cls-4" d="M651.1,464.8c1.1-1,1.8.2,2.5.6L684.5,483c1.6,1,2.6,1.9,2.5,4q-.2,17.4,0,34.8c.1,3-.9,2.7-2.9,1.6l-17.2-9.7-.3-14.9c0-1.2.2-2.5-1.2-3.2-4.7-2.4-8.8-5.6-13.7-7.4,0-4.6.1-9.3,0-13.9S652.4,467.9,651.1,464.8Z" transform="translate(-610.4 -453.2)"/>
    <path class="cls-5" d="M651.1,464.8c1.3,3.1.5,6.4.6,9.5s0,9.3,0,13.9h0c-4.4,1.5-8,4.6-12.2,6.5-2.1,1-2.8,2.5-2.7,4.8.1,4.2,0,8.5,0,12.7l-.6,1.3-18.9,11.1c-1.3-1-.8-2.1-.8-3V487.5c0-1.6-.1-3,1.7-4Z" transform="translate(-610.4 -453.2)"/>
    <path class="cls-6" d="M651.7,488.2c4.9,1.8,9,5,13.7,7.4,1.4.7,1.2,2,1.2,3.2l.3,14.9H666c-.1-1.6-1.6-1.8-2.6-2.3l-11.7-6.8V488.2Z" transform="translate(-610.4 -453.2)"/>
    <path class="cls-7" d="M651.7,488.2v16.5c-4.7,3.1-10,5.1-14.3,8.8h-.3l-.3-.2v-1.1c0-4.2.1-8.5,0-12.7-.1-2.3.6-3.8,2.7-4.8C643.7,492.8,647.3,489.7,651.7,488.2Z" transform="translate(-610.4 -453.2)"/>
    <path class="cls-8" d="M637.4,513.5c4.3-3.7,9.6-5.7,14.3-8.8l11.7,6.8c1,.5,2.5.7,2.6,2.3-3.9,2.1-7.8,4.2-11.6,6.6a4.5,4.5,0,0,1-5.4-.1C645.2,517.9,641.3,515.7,637.4,513.5Z" transform="translate(-610.4 -453.2)"/>
    <path class="cls-8" d="M636.8,512.2v1.1a.7.7,0,0,1-.6.2Z" transform="translate(-610.4 -453.2)"/>
  </g>
  <text x="-610.4" y="-453.2"></text>
</svg>
