<svg id="Calque_1" data-name="Calque 1" xmlns="http://www.w3.org/2000/svg" viewBox="0 0 251.8 78.3">
  <defs>
    <style>
      .cls-1 {
        fill: #fefefe;
      }

      .cls-2, .cls-3, .cls-9 {
        isolation: isolate;
      }

      .cls-3 {
        font-size: 37px;
        fill: #2c3e50;
        letter-spacing: -0.03em;
      }

      .cls-3, .cls-9 {
        font-family: OpenSans-Extrabold, Open Sans;
        font-weight: 700;
      }

      .cls-4 {
        fill: #2a80b8;
      }

      .cls-5 {
        fill: #f7f9fa;
      }

      .cls-6 {
        fill: #2f4053;
      }

      .cls-7 {
        fill: #2a7eb5;
      }

      .cls-8 {
        fill: #fff;
        stroke: #000;
        stroke-miterlimit: 10;
      }

      .cls-9 {
        font-size: 46px;
        fill: #2980b9;
        letter-spacing: -0.03em;
      }
    </style>
  </defs>
  <title>logo1</title>
  <path class="cls-1" d="M.1,80.8C.1,56.2.1,31.5,0,6.9,0,4.7.5,4.2,2.7,4.2H80c2.2,0,2.7.5,2.7,2.7-.1,23.8-.1,47.5,0,71.3,0,2.2-.5,2.7-2.7,2.7ZM26.4,60.1l.3.2H27c3.9,2.2,7.8,4.4,11.6,6.8a4.5,4.5,0,0,0,5.4.1c3.8-2.4,7.7-4.5,11.6-6.6h.9l17.2,9.7c2,1.1,3,1.4,2.9-1.6q-.1-17.4,0-34.8c.1-2.1-.9-3-2.5-4L43.2,12.3c-.7-.4-1.4-1.6-2.5-.6L7.8,30.4c-1.8,1-1.7,2.4-1.7,4V68.5c0,.9-.5,2,.8,3L25.8,60.4A.7.7,0,0,0,26.4,60.1Z" transform="translate(0 -2.7)"/>
  <g class="cls-2">
    <text class="cls-3" transform="translate(89.8 67.4)">SERVICES</text>
  </g>
  <text class="cls-2" y="-2.7"></text>
  <path class="cls-4" d="M40.7,11.6c1.1-1,1.8.2,2.5.6L74.1,29.8c1.6,1,2.6,1.9,2.5,4q-.1,17.4,0,34.8c.1,3-.9,2.7-2.9,1.6L56.5,60.5l-.3-14.9c0-1.2.2-2.5-1.2-3.2C50.3,40,46.2,36.8,41.3,35c0-4.6.1-9.3,0-13.9S42,14.7,40.7,11.6Z" transform="translate(0 -2.7)"/>
  <path class="cls-5" d="M41.3,35c4.9,1.8,9,5,13.7,7.4,1.4.7,1.2,2,1.2,3.2l.3,14.9h-.9c-.1-1.6-1.6-1.8-2.6-2.3L41.3,51.4Z" transform="translate(0 -2.7)"/>
  <path class="cls-6" d="M27,60.3c4.3-3.7,9.6-5.7,14.3-8.8L53,58.3c1,.5,2.5.7,2.6,2.3-3.9,2.1-7.8,4.2-11.6,6.6a4.5,4.5,0,0,1-5.4-.1C34.8,64.7,30.9,62.5,27,60.3Z" transform="translate(0 -2.7)"/>
  <path class="cls-7" d="M41.3,35V51.5c-4.7,3.1-10,5.1-14.3,8.8h-.3l-.3-.2V59c0-4.2.1-8.5,0-12.7-.1-2.3.6-3.8,2.7-4.8C33.3,39.6,36.9,36.5,41.3,35Z" transform="translate(0 -2.7)"/>
  <path class="cls-6" d="M40.7,11.6c1.3,3.1.5,6.4.6,9.5s0,9.3,0,13.9h0c-4.4,1.5-8,4.6-12.2,6.5-2.1,1-2.8,2.5-2.7,4.8.1,4.2,0,8.5,0,12.7l-.6,1.3L6.9,71.4c-1.3-1-.8-2.1-.8-3V34.3c0-1.6-.1-3,1.7-4Z" transform="translate(0 -2.7)"/>
  <path class="cls-6" d="M26.4,59v1.1a.7.7,0,0,1-.6.2Z" transform="translate(0 -2.7)"/>
  <path class="cls-8" d="M559-289" transform="translate(0 -2.7)"/>
  <text class="cls-9" transform="translate(84.1 39.9)">1001</text>
</svg>
